<svg width="21" height="19" viewBox="0 0 21 19" fill="none" xmlns="http://www.w3.org/2000/svg">
<path id="Vector" d="M10.4763 13.3194C10.2886 13.3194 10.1051 13.3749 9.94903 13.479C9.79297 13.583 9.67134 13.7308 9.59951 13.9038C9.52769 14.0768 9.50889 14.2672 9.54551 14.4508C9.58213 14.6345 9.67251 14.8032 9.80523 14.9356C9.93794 15.068 10.107 15.1582 10.2911 15.1947C10.4752 15.2312 10.666 15.2125 10.8394 15.1408C11.0128 15.0692 11.161 14.9478 11.2653 14.7921C11.3696 14.6364 11.4252 14.4534 11.4252 14.2661C11.4252 14.015 11.3253 13.7742 11.1473 13.5967C10.9693 13.4191 10.7279 13.3194 10.4763 13.3194ZM20.6018 14.7111L12.9626 1.45669C12.7157 1.01505 12.355 0.647183 11.9179 0.3911C11.4808 0.135016 10.9831 0 10.4763 0C9.96936 0 9.47167 0.135016 9.03457 0.3911C8.59748 0.647183 8.23685 1.01505 7.98993 1.45669L0.398113 14.7111C0.142645 15.1409 0.00537206 15.6304 0.000154494 16.1301C-0.00506307 16.6298 0.121959 17.122 0.368397 17.5571C0.614835 17.9921 0.971964 18.3546 1.40373 18.6079C1.83549 18.8613 2.32661 18.9964 2.8275 18.9999H18.125C18.6299 19.0048 19.1271 18.8757 19.5655 18.6258C20.0039 18.3759 20.3678 18.0142 20.6199 17.5777C20.8719 17.1412 21.0031 16.6457 20.9999 16.142C20.9968 15.6382 20.8594 15.1444 20.6018 14.7111ZM18.9601 16.6046C18.8769 16.7522 18.7556 16.8749 18.6087 16.9599C18.4618 17.0448 18.2948 17.0888 18.125 17.0874H2.8275C2.65773 17.0888 2.4907 17.0448 2.34382 16.9599C2.19693 16.8749 2.07558 16.7522 1.9924 16.6046C1.90911 16.4607 1.86526 16.2974 1.86526 16.1312C1.86526 15.965 1.90911 15.8018 1.9924 15.6579L9.58422 2.40343C9.66385 2.24836 9.78484 2.11821 9.93386 2.02733C10.0829 1.93645 10.2541 1.88837 10.4288 1.88837C10.6035 1.88837 10.7747 1.93645 10.9237 2.02733C11.0728 2.11821 11.1938 2.24836 11.2734 2.40343L18.9127 15.6579C19.0068 15.7997 19.0609 15.9643 19.0693 16.1342C19.0776 16.3041 19.0399 16.4732 18.9601 16.6235V16.6046ZM10.4763 5.74544C10.2246 5.74544 9.98319 5.84519 9.80523 6.02274C9.62726 6.20029 9.52728 6.44109 9.52728 6.69219V10.4792C9.52728 10.7303 9.62726 10.9711 9.80523 11.1486C9.98319 11.3262 10.2246 11.4259 10.4763 11.4259C10.7279 11.4259 10.9693 11.3262 11.1473 11.1486C11.3253 10.9711 11.4252 10.7303 11.4252 10.4792V6.69219C11.4252 6.44109 11.3253 6.20029 11.1473 6.02274C10.9693 5.84519 10.7279 5.74544 10.4763 5.74544Z" fill="#FE8484"/>
</svg>
