<svg width="16" height="16" viewBox="0 0 16 16" fill="none" xmlns="http://www.w3.org/2000/svg">
<path d="M8.88971 2.6854C8.88995 2.92181 8.79657 3.14869 8.62998 3.31644C8.4634 3.48419 8.23717 3.57916 8.00076 3.58057C7.51318 3.58057 7.11182 3.17965 7.11182 2.6854V0.895056C7.11182 0.400801 7.51318 -0.000113964 8.00076 -0.000113964C8.48835 -0.000113964 8.88971 0.400801 8.88971 0.895056V2.6854Z" fill="#FFCC4D"/>
<path d="M4.08027 16.0015C3.98071 16.0015 3.87937 15.9784 3.78425 15.9308C3.62654 15.8494 3.50711 15.7093 3.45174 15.5407C3.39637 15.3721 3.40947 15.1884 3.48824 15.0294L7.46183 6.97287C7.57428 6.7453 7.80319 6.60173 8.05431 6.60173C8.30544 6.60173 8.53435 6.7453 8.64635 6.97287L12.6208 15.0294C12.6996 15.1884 12.7127 15.3721 12.6573 15.5407C12.602 15.7093 12.4825 15.8494 12.3248 15.9308C12.2469 15.97 12.1619 15.9934 12.0748 15.9995C11.9878 16.0056 11.9004 15.9943 11.8177 15.9664C11.7351 15.9384 11.6588 15.8943 11.5933 15.8366C11.5278 15.7789 11.4745 15.7088 11.4363 15.6303L8.05431 8.77432L4.67276 15.6303C4.61861 15.7414 4.53439 15.8351 4.42965 15.9007C4.32491 15.9663 4.20386 16.0012 4.08027 16.0015Z" fill="#FFAC33"/>
<path d="M8.05422 9.06396C7.99611 9.06391 7.93859 9.05229 7.88502 9.02978C7.83145 9.00726 7.7829 8.97431 7.7422 8.93285L1.5609 2.66621C1.47805 2.58171 1.43164 2.46809 1.43164 2.34974C1.43164 2.2314 1.47805 2.11778 1.5609 2.03328C1.60158 1.99178 1.65013 1.95881 1.7037 1.9363C1.75728 1.9138 1.81481 1.9022 1.87292 1.9022C1.93103 1.9022 1.98856 1.9138 2.04214 1.9363C2.09571 1.95881 2.14426 1.99178 2.18494 2.03328L8.05422 7.983L13.9226 2.03328C13.9634 1.99182 14.0119 1.95889 14.0656 1.93641C14.1192 1.91393 14.1767 1.90236 14.2348 1.90236C14.293 1.90236 14.3505 1.91393 14.4041 1.93641C14.4577 1.95889 14.5063 1.99182 14.5471 2.03328C14.6299 2.11778 14.6763 2.2314 14.6763 2.34974C14.6763 2.46809 14.6299 2.58171 14.5471 2.66621L8.36668 8.93285C8.32588 8.97431 8.27725 9.00725 8.22361 9.02976C8.16997 9.05227 8.11239 9.06389 8.05422 9.06396Z" fill="#58595B"/>
<path d="M15.1187 8.61643C15.1187 12.5714 11.9563 15.7773 8.05426 15.7773C4.15311 15.7773 0.990234 12.5714 0.990234 8.61643C0.990234 4.66061 4.15311 1.45462 8.05426 1.45462C11.9563 1.45462 15.1187 4.66061 15.1187 8.61643Z" fill="#DD2E44"/>
<path d="M13.3526 8.61677C13.3526 11.5832 10.9814 13.9878 8.05452 13.9878C5.12855 13.9878 2.75684 11.5832 2.75684 8.61677C2.75684 5.64991 5.12855 3.24531 8.05452 3.24531C10.9814 3.24531 13.3526 5.64991 13.3526 8.61677Z" fill="#E6E7E8"/>
<path d="M13.352 0.559253C13.0032 0.559195 12.6578 0.628747 12.3362 0.763836C12.0146 0.898925 11.7232 1.09683 11.479 1.34597L15.2255 5.14355C15.7241 4.63752 16.0028 3.95516 16.0011 3.24476C16.0011 1.762 14.8148 0.559253 13.352 0.559253Z" fill="#FFCC4D"/>
<path d="M2.64907 0.559253C2.9979 0.55922 3.34324 0.628784 3.66485 0.763871C3.98647 0.898958 4.2779 1.09685 4.52208 1.34597L0.775613 5.14355C0.277188 4.63741 -0.00151089 3.95512 6.16102e-06 3.24476C6.16102e-06 1.762 1.18586 0.559253 2.64907 0.559253Z" fill="#FFCC4D"/>
<path d="M10.223 8.88965H8.00063C7.88274 8.88965 7.76969 8.84282 7.68634 8.75947C7.60298 8.67611 7.55615 8.56306 7.55615 8.44517V4.44491C7.55615 4.32703 7.60298 4.21398 7.68634 4.13062C7.76969 4.04727 7.88274 4.00044 8.00063 4.00044C8.11851 4.00044 8.23156 4.04727 8.31492 4.13062C8.39827 4.21398 8.4451 4.32703 8.4451 4.44491V8.0007H10.223C10.3409 8.0007 10.4539 8.04753 10.5373 8.13088C10.6206 8.21424 10.6675 8.32729 10.6675 8.44517C10.6675 8.56306 10.6206 8.67611 10.5373 8.75947C10.4539 8.84282 10.3409 8.88965 10.223 8.88965Z" fill="#414042"/>
</svg>
