<svg width="12" height="11" viewBox="0 0 12 11" fill="none" xmlns="http://www.w3.org/2000/svg">
<path id="Vector" d="M3.528 0.835651L2.757 0L0 2.10551L0.771 2.94116L3.528 0.835651ZM12 2.10824L9.243 0.00273088L8.472 0.838381L11.229 2.94389L12 2.10824ZM5.997 1.16882C3.012 1.16882 0.6 3.36991 0.6 6.08441C0.6 8.79891 3.012 11 5.997 11C8.982 11 11.4 8.79891 11.4 6.08441C11.4 3.36991 8.982 1.16882 5.997 1.16882ZM6 9.90765C3.681 9.90765 1.8 8.19538 1.8 6.08441C1.8 3.97344 3.681 2.26117 6 2.26117C8.319 2.26117 10.2 3.97344 10.2 6.08441C10.2 8.19538 8.322 9.90765 6 9.90765ZM6.6 3.8997H5.4V5.53823H3.6V6.63059H5.4V8.26912H6.6V6.63059H8.4V5.53823H6.6V3.8997Z" fill="#DCDCDC"/>
</svg>
